<?xml version="1.0" encoding="UTF-8"?>
<!-- Uploaded to: SVG Find, www.svgrepo.com, Generator: SVG Find Mixer Tools -->
<svg fill="#000000" width="800px" height="800px" version="1.1" viewBox="144 144 512 512" xmlns="http://www.w3.org/2000/svg">
 <path d="m466.27 481.69c0.058594 0.84766 0.085937 1.6992 0.082031 2.5508-0.003906 2.5078-0.26172 5.0156-0.76953 7.5273h-11.434c-9.8047 0-17.762 7.9609-17.762 17.766v112.96c0 9.8086 7.957 17.766 17.762 17.766h82.602c9.8047 0 17.766-7.957 17.766-17.766v-112.96c0-9.6523-7.7109-17.52-17.305-17.762l-0.46094-0.003906h-11.434c-0.50391-2.5117-0.76172-5.0195-0.76953-7.5273 0-0.85156 0.027343-1.7031 0.085937-2.5508 8.6055-1.2344 15.227-8.6406 15.227-17.586v-8.2656c0-9.8047-7.9609-17.766-17.766-17.766h-53.285c-9.8047 0-17.766 7.9609-17.766 17.766v8.2656c0 8.9453 6.6211 16.352 15.227 17.586zm2.4609 18.277h-14.582c-5.2773 0-9.5625 4.2852-9.5625 9.5664v112.96c0 5.2812 4.2852 9.5664 9.5625 9.5664h82.602c5.2812 0 9.5664-4.2852 9.5664-9.5664v-112.96c0-5.2812-4.2852-9.5664-9.5664-9.5664h-14.578-0.16016-53.125-0.15625zm26.719 21.641c-24.508 0-44.406 19.898-44.406 44.406 0 24.512 19.898 44.41 44.406 44.41 24.512 0 44.41-19.898 44.41-44.41 0-24.508-19.898-44.406-44.41-44.406zm0 8.1992c19.984 0 36.211 16.223 36.211 36.207s-16.227 36.211-36.211 36.211c-19.984 0-36.207-16.227-36.207-36.211s16.223-36.207 36.207-36.207zm3.3672 11.531c-0.76953-1.1016-2.0234-1.7578-3.3672-1.7578-1.3398 0-2.5938 0.65625-3.3633 1.7578 0 0-7.5312 10.82-12.055 20.223-2.207 4.5898-3.6328 8.9297-3.6328 11.832 0 10.516 8.5352 19.055 19.051 19.055 10.516 0 19.055-8.5391 19.055-19.055 0-2.9023-1.4258-7.2422-3.6367-11.832-4.5195-9.4023-12.051-20.223-12.051-20.223zm-159.48-13.68 168.09-168.09c0.39453-0.39062 0.6875-0.84375 0.88672-1.3242l0.007812-0.011719c0.19922-0.48047 0.30859-1.0078 0.30859-1.5625v-26.098l14.16-14.16c1.5977-1.6016 1.5977-4.1992 0-5.7969l-6.5-6.5 13.004-13.004c1.6016-1.6016 1.6016-4.1992 0-5.8008l-2.668-2.6641 60.719-60.719c1.2031-1.2031 1.5391-3.0312 0.83594-4.582-0.69922-1.5547-2.2891-2.5156-3.9922-2.4102l-16.281 1.0156c-1 0.058594-1.9375 0.48438-2.6445 1.1914l-52.07 52.066-1.9688-1.9688c-1.6016-1.6016-4.1992-1.6016-5.8008 0l-13.004 13.004-6.5-6.5c-1.6016-1.6016-4.1953-1.6016-5.7969 0l-14.668 14.672-25.508-0.51172c-0.57031-0.007812-1.1133 0.097656-1.6133 0.29688l-0.011719 0.003906c-0.50781 0.20703-0.96484 0.51562-1.3555 0.90234l-168.09 168.09-7.5391-7.5391c-1.6016-1.5977-4.1992-1.5977-5.7969 0-1.6016 1.6016-1.6016 4.1992 0 5.8008l28.965 28.965-31.07 31.066-14.027-14.027c-6.3906-6.3867-16.762-6.3867-23.148 0-6.3867 6.3906-6.3867 16.762 0 23.148l55.664 55.664c6.3867 6.3867 16.758 6.3867 23.145 0 6.3906-6.3867 6.3906-16.758 0-23.148l-14.023-14.027 31.066-31.07 28.965 28.965c1.6016 1.6016 4.1992 1.6016 5.8008 0 1.5977-1.5977 1.5977-4.1992 0-5.7969zm156.11 23.434c2.4219 3.7734 5.6641 9.1016 8.0312 14.02 1.5586 3.2461 2.8242 6.2305 2.8242 8.2812 0 5.9922-4.8633 10.855-10.855 10.855-5.9883 0-10.852-4.8633-10.852-10.855 0-2.0508 1.2656-5.0352 2.8242-8.2812 2.3672-4.918 5.6094-10.246 8.0273-14.02zm-206.18 11.836-55.664-55.664c-3.1875-3.1875-8.3633-3.1875-11.551 0s-3.1875 8.3633 0 11.551l55.664 55.664c3.1875 3.1875 8.3633 3.1875 11.551 0s3.1875-8.3633 0-11.551zm1.0312-72.707-31.07 31.07 16.012 16.012 31.07-31.07zm51.41 23.469-15.629-15.629-8.1719 8.1719 15.629 15.629zm13.168-44.43-23 23.004 15.629 15.625 23.871-23.871c-1.7969-0.67969-3.4844-1.7383-4.9297-3.1875zm-58.781 15.164 16.012 16.012 8.1719-8.1719-16.012-16.016zm220.31-2.5547h-41.914c0.042969 0.79297 0.0625 1.5898 0.058594 2.3828-0.003906 2.5039-0.21094 5.0117-0.62891 7.5156h43.059c-0.41797-2.5039-0.62891-5.0117-0.63281-7.5156 0-0.79297 0.019531-1.5898 0.058594-2.3828zm-206.34-11.418 16.012 16.012 23-23-16.012-16.012zm-35.398-7.457 15.629 15.629 8.1719-8.1719-15.629-15.629zm105.7 12.039c-2.2422 2.2383-5.8789 2.2383-8.1211 0l-50.746-50.746c-2.2383-2.2422-2.2383-5.8789 0-8.1211 2.2383-2.2383 5.8789-2.2383 8.1172 0l50.75 50.75c2.2383 2.2383 2.2383 5.8789 0 8.1172zm151.29-19.164v-0.03125c0-5.2812-4.2891-9.5664-9.5664-9.5664h-53.285c-5.2812 0-9.5664 4.2852-9.5664 9.5664v8.2656c0 5.2773 4.2852 9.5664 9.5664 9.5664h1.0859 0.12891 50.855 0.125 1.0898c5.2773 0 9.5664-4.2891 9.5664-9.5664v-0.03125h-31.289c-2.2617 0-4.1016-1.8398-4.1016-4.1016s1.8398-4.1016 4.1016-4.1016zm-40.477-91.656 9.2422-9.2383v-23.312l-35.047-35.043-23.855-0.47656-111.04 111.04c1.7969 0.67578 3.4844 1.7383 4.9297 3.1836l50.75 50.746c1.4453 1.4492 2.5078 3.1328 3.1836 4.9336l17.965-17.965-14.25-14.25c-1.6016-1.6016-1.6016-4.1992 0-5.7969 1.5977-1.6016 4.1953-1.6016 5.7969 0l14.25 14.25 13.723-13.719-29.434-29.434c-1.6016-1.6016-1.6016-4.1992 0-5.8008 1.6016-1.5977 4.1992-1.5977 5.7969 0l29.434 29.434 13.723-13.719-14.254-14.25c-1.6016-1.6016-1.6016-4.1992 0-5.8008 1.6016-1.6016 4.1992-1.6016 5.7969 0l14.254 14.254 13.719-13.723-29.434-29.434c-1.5977-1.5977-1.5977-4.1953 0-5.7969 1.6016-1.5977 4.1992-1.5977 5.8008 0l29.434 29.434 13.719-13.719-14.25-14.254c-1.6016-1.6016-1.6016-4.1992 0-5.7969 1.5977-1.6016 4.1953-1.6016 5.7969 0zm-178.67 60.938-23.875 23.875 15.629 15.629 23-23-11.566-11.57c-1.4492-1.4453-2.5117-3.1328-3.1875-4.9336zm176.05 30.719h-8.0664c-2.2617 0-4.0977 1.8398-4.0977 4.1016s1.8359 4.1016 4.0977 4.1016h8.0664c2.2617 0 4.1016-1.8398 4.1016-4.1016s-1.8398-4.1016-4.1016-4.1016zm-218.45-163.29c-23.984 0-43.461 19.473-43.461 43.461 0 23.984 19.477 43.461 43.461 43.461 23.988 0 43.461-19.477 43.461-43.461 0-23.988-19.473-43.461-43.461-43.461zm0 8.1992c19.461 0 35.262 15.801 35.262 35.262 0 19.461-15.801 35.258-35.262 35.258s-35.258-15.797-35.258-35.258c0-19.461 15.797-35.262 35.258-35.262zm-4.0977 31.16h-14.598c-2.2617 0-4.1016 1.8359-4.1016 4.1016 0 2.2617 1.8398 4.0977 4.1016 4.0977h14.598v14.598c0 2.2617 1.8359 4.1016 4.0977 4.1016 2.2656 0 4.1016-1.8398 4.1016-4.1016v-14.598h14.594c2.2656 0 4.1016-1.8359 4.1016-4.0977 0-2.2656-1.8359-4.1016-4.1016-4.1016h-14.594v-14.594c0-2.2656-1.8359-4.1016-4.1016-4.1016-2.2617 0-4.0977 1.8359-4.0977 4.1016zm206.89-39.387 31.07 31.07 10.105-10.105-31.07-31.07zm25.301-6.5078 12.273 12.277 10.109-10.109-2.668-2.6641-9.6094-9.6094zm-101.39-93.078c0-18.34-14.887-33.227-33.227-33.227-18.336 0-33.227 14.887-33.227 33.227v64.746c0 18.34 14.891 33.227 33.227 33.227 18.34 0 33.227-14.887 33.227-33.227v-64.746zm-8.1992 36.473v28.273c0 13.812-11.215 25.027-25.027 25.027s-25.027-11.215-25.027-25.027v-28.273zm132.2 47.41 53.051-53.051-3.918 0.24219-50.969 50.973zm-132.2-55.609h-50.055v-28.273c0-13.812 11.215-25.027 25.027-25.027s25.027 11.215 25.027 25.027zm-4.0195-10.379v-15.355c0-11.953-9.1523-21.785-20.824-22.875-2.2539-0.21094-4.2539 1.4492-4.4609 3.7031-0.21094 2.2539 1.4453 4.2539 3.6992 4.4609 7.5039 0.69922 13.383 7.0234 13.383 14.711v15.355c0 2.2617 1.8398 4.0977 4.1016 4.0977 2.2617 0 4.1016-1.8359 4.1016-4.0977z" fill-rule="evenodd"/>
</svg>